<svg id="visual" viewBox="0 0 960 540" width="960" height="540" xmlns="http://www.w3.org/2000/svg" xmlns:xlink="http://www.w3.org/1999/xlink" version="1.1"><rect x="0" y="0" width="960" height="540" fill="#f5f5f5"></rect><defs><linearGradient id="grad1_0" x1="43.8%" y1="0%" x2="100%" y2="100%"><stop offset="14.444444444444446%" stop-color="#f5f5f5" stop-opacity="1"></stop><stop offset="85.55555555555554%" stop-color="#f5f5f5" stop-opacity="1"></stop></linearGradient></defs><defs><linearGradient id="grad2_0" x1="0%" y1="0%" x2="56.3%" y2="100%"><stop offset="14.444444444444446%" stop-color="#f5f5f5" stop-opacity="1"></stop><stop offset="85.55555555555554%" stop-color="#f5f5f5" stop-opacity="1"></stop></linearGradient></defs><g transform="translate(960, 0)"><path d="M0 162C-20 150.8 -40.1 139.7 -52 125.6C-64 111.6 -67.9 94.7 -85.6 85.6C-103.2 76.4 -134.6 75 -149.7 62C-164.7 49 -163.4 24.5 -162 0L0 0Z" fill="#1f2029"></path></g><g transform="translate(0, 540)"><path d="M0 -162C14.4 -137.1 28.8 -112.2 41.3 -99.8C53.9 -87.4 64.5 -87.5 84.9 -84.9C105.2 -82.2 135.2 -76.6 149.7 -62C164.1 -47.4 163.1 -23.7 162 0L0 0Z" fill="#1f2029"></path></g></svg>